<mxfile host="app.diagrams.net" modified="2022-07-04T08:51:28.715Z" agent="5.0 (Macintosh; Intel Mac OS X 10_15_7) AppleWebKit/537.36 (KHTML, like Gecko) Chrome/103.0.0.0 Safari/537.36" etag="AEJB3kbVPX5RKbkR8puY" version="20.0.4" type="github">
  <diagram id="V5IkhV1I7nDf-Cw9mrL2" name="Page-1">
    <mxGraphModel dx="852" dy="555" grid="1" gridSize="10" guides="1" tooltips="1" connect="1" arrows="1" fold="1" page="1" pageScale="1" pageWidth="827" pageHeight="1169" math="0" shadow="0">
      <root>
        <mxCell id="0" />
        <mxCell id="1" parent="0" />
        <mxCell id="dT0plk2iJGL6c9s7YRfX-2" value="Scanner" style="rounded=0;whiteSpace=wrap;html=1;" vertex="1" parent="1">
          <mxGeometry x="70" y="80" width="390" height="160" as="geometry" />
        </mxCell>
        <mxCell id="dT0plk2iJGL6c9s7YRfX-3" value="Report" style="rounded=1;whiteSpace=wrap;html=1;fillColor=#ffe6cc;strokeColor=#d79b00;" vertex="1" parent="1">
          <mxGeometry x="140" y="90" width="110" height="40" as="geometry" />
        </mxCell>
        <mxCell id="dT0plk2iJGL6c9s7YRfX-4" value="SNYK-CLI" style="rounded=1;whiteSpace=wrap;html=1;fillColor=#d5e8d4;strokeColor=#82b366;" vertex="1" parent="1">
          <mxGeometry x="140" y="180" width="220" height="40" as="geometry" />
        </mxCell>
        <mxCell id="dT0plk2iJGL6c9s7YRfX-5" value="Backend" style="rounded=0;whiteSpace=wrap;html=1;" vertex="1" parent="1">
          <mxGeometry x="70" y="260" width="390" height="160" as="geometry" />
        </mxCell>
        <mxCell id="dT0plk2iJGL6c9s7YRfX-12" value="Fetch" style="rounded=1;whiteSpace=wrap;html=1;fillColor=#d5e8d4;strokeColor=#82b366;" vertex="1" parent="1">
          <mxGeometry x="260" y="90" width="110" height="40" as="geometry" />
        </mxCell>
        <mxCell id="dT0plk2iJGL6c9s7YRfX-13" value="test-dep-graph" style="rounded=1;whiteSpace=wrap;html=1;fillColor=#dae8fc;strokeColor=#6c8ebf;" vertex="1" parent="1">
          <mxGeometry x="90" y="270" width="110" height="40" as="geometry" />
        </mxCell>
        <mxCell id="dT0plk2iJGL6c9s7YRfX-14" value="Cache" style="rounded=1;whiteSpace=wrap;html=1;fillColor=#ffe6cc;strokeColor=#d79b00;" vertex="1" parent="1">
          <mxGeometry x="210" y="270" width="110" height="40" as="geometry" />
        </mxCell>
        <mxCell id="dT0plk2iJGL6c9s7YRfX-16" value="Report" style="rounded=1;whiteSpace=wrap;html=1;fillColor=#ffe6cc;strokeColor=#d79b00;" vertex="1" parent="1">
          <mxGeometry x="90" y="360" width="110" height="40" as="geometry" />
        </mxCell>
        <mxCell id="dT0plk2iJGL6c9s7YRfX-18" value="Frontend" style="rounded=0;whiteSpace=wrap;html=1;" vertex="1" parent="1">
          <mxGeometry x="70" y="450" width="390" height="166" as="geometry" />
        </mxCell>
        <mxCell id="dT0plk2iJGL6c9s7YRfX-19" value="Search Dep" style="rounded=1;whiteSpace=wrap;html=1;fillColor=#ffe6cc;strokeColor=#d79b00;" vertex="1" parent="1">
          <mxGeometry x="90" y="460" width="110" height="40" as="geometry" />
        </mxCell>
        <mxCell id="dT0plk2iJGL6c9s7YRfX-20" value="Scan List" style="rounded=1;whiteSpace=wrap;html=1;fillColor=#ffe6cc;strokeColor=#d79b00;" vertex="1" parent="1">
          <mxGeometry x="210" y="460" width="110" height="40" as="geometry" />
        </mxCell>
        <mxCell id="dT0plk2iJGL6c9s7YRfX-21" value="Create Jira" style="rounded=1;whiteSpace=wrap;html=1;fillColor=#ffe6cc;strokeColor=#d79b00;" vertex="1" parent="1">
          <mxGeometry x="90" y="550" width="110" height="40" as="geometry" />
        </mxCell>
        <mxCell id="dT0plk2iJGL6c9s7YRfX-22" value="Create Scan" style="rounded=1;whiteSpace=wrap;html=1;fillColor=#ffe6cc;strokeColor=#d79b00;" vertex="1" parent="1">
          <mxGeometry x="210" y="550" width="110" height="40" as="geometry" />
        </mxCell>
        <mxCell id="dT0plk2iJGL6c9s7YRfX-23" value="Dep Vulns" style="rounded=1;whiteSpace=wrap;html=1;fillColor=#ffe6cc;strokeColor=#d79b00;" vertex="1" parent="1">
          <mxGeometry x="330" y="460" width="110" height="40" as="geometry" />
        </mxCell>
        <mxCell id="dT0plk2iJGL6c9s7YRfX-24" value="Block" style="rounded=1;whiteSpace=wrap;html=1;fillColor=#ffe6cc;strokeColor=#d79b00;" vertex="1" parent="1">
          <mxGeometry x="330" y="550" width="110" height="40" as="geometry" />
        </mxCell>
        <mxCell id="dT0plk2iJGL6c9s7YRfX-25" value="Dep Vulns" style="rounded=1;whiteSpace=wrap;html=1;fillColor=#ffe6cc;strokeColor=#d79b00;" vertex="1" parent="1">
          <mxGeometry x="330" y="270" width="110" height="40" as="geometry" />
        </mxCell>
        <mxCell id="dT0plk2iJGL6c9s7YRfX-26" value="Dal" style="rounded=1;whiteSpace=wrap;html=1;fillColor=#dae8fc;strokeColor=#6c8ebf;" vertex="1" parent="1">
          <mxGeometry x="210" y="360" width="110" height="40" as="geometry" />
        </mxCell>
        <mxCell id="dT0plk2iJGL6c9s7YRfX-27" value="APIs" style="rounded=1;whiteSpace=wrap;html=1;fillColor=#dae8fc;strokeColor=#6c8ebf;" vertex="1" parent="1">
          <mxGeometry x="330" y="360" width="110" height="40" as="geometry" />
        </mxCell>
      </root>
    </mxGraphModel>
  </diagram>
</mxfile>
